<?xml version="1.0" encoding="utf-8"?>
<svg version="1.1" xmlns="http://www.w3.org/2000/svg" xmlns:xlink="http://www.w3.org/1999/xlink" x="0px" y="0px"
	 viewBox="0 0 500 500" style="enable-background:new 0 0 500 500;" xml:space="preserve">
<g id="BACKGROUND">
</g>
<g id="OBJECTS">
	<g>
		<path fill="currentColor" style="fill:#3E3E3D;" d="M241.984,186.956c0.115,0.728,1.187,0.632,1.263-0.069c0.529-4.938,4.784-8.156,7.264-12.139
			c2.413-3.869,3.5-8.438,3.541-12.971c0.088-9.923-4.667-18.873-10.336-26.695c-0.145-0.196-0.483,0.024-0.36,0.235
			c0.051,0.086,0.101,0.176,0.152,0.262c-0.381,0.036-0.752,0.421-0.546,0.885c3.998,9.12-6.273,17.193-7.005,26.006
			C235.247,171.051,240.68,178.69,241.984,186.956z"/>
		<path style="fill:#3E3E3D;" d="M234.915,84.017c5.545,0.436,10.017,2.765,13.85,6.037c-0.62-1.746-1.146-3.552-1.979-5.218
			c-1.473-2.948-3.336-5.713-5.449-8.236c-3.199-3.836-6.831-6.787-10.839-9.444c-0.266-0.175-0.541-0.352-0.807-0.528
			c-0.212,0.144-0.462,0.248-0.76,0.276c-4.644,0.487-9.027-0.908-12.639-3.837c-0.742-0.601-0.611-2.027,0.251-2.465
			c4.135-2.086,9.729-0.992,12.126,3.022c0.184,0.043,0.378,0.08,0.562,0.123c0.809,0.173,1.186,0.778,1.201,1.405
			c0.252,0.099,0.512,0.2,0.76,0.315c4.859,2.023,9.36,5.41,12.733,9.23c1.47,1.677,3.11,3.767,4.576,6.05
			c0.271-11.917,3.73-24.88-0.069-35.473c-0.338-0.944,0.802-1.843,1.658-1.353c11.151,6.37,18.98,17.305,22.222,29.459
			c2.565-6.974,5.812-13.683,9.612-20.095c0.149-0.256,0.303-0.504,0.452-0.76c-0.066-0.169-0.12-0.352-0.101-0.574
			c0.212-2.782,0.826-5.972,2.596-8.22c1.229-1.558,3.618-2.748,5.251-1.009c1.586,1.697,0.543,4.438-0.31,6.222
			c-1.126,2.367-3.153,4.709-5.669,5.611c-0.513,0.188-0.922-0.142-1.047-0.576c-3.99,7.572-7.244,15.453-9.86,23.588
			c0.412,2.329,0.656,4.683,0.726,7.053c1.655-3.942,3.766-7.649,6.661-10.84c7.093-7.835,18.317-9.166,25.74-16.472
			c0.638-0.62,1.779-0.241,1.815,0.682c0.42,11.246,0.189,22.817-7.812,31.597c-0.89,0.974-1.831,1.887-2.817,2.749
			c-0.334,0.286-0.658,0.566-0.997,0.843c0.406-0.148,0.817-0.311,1.229-0.449c4.687-1.609,9.574-2.791,14.507-3.13
			c0.125-0.569,0.812-0.983,1.42-0.713c3.52-2.504,8.274-2.593,11.867-0.169c0.964,0.653,0.965,1.794,0.07,2.508
			c-3.404,2.733-9.406,3.219-12.565-0.131c-0.183,0.022-0.368,0.052-0.553,0.082c-5.003,0.71-9.88,2.024-14.671,3.973
			c-3.78,1.538-7.44,3.321-11.019,5.278c3.351,0.652,6.755,1.907,10.149,3.103c4.455,1.572,8.89,3.019,13.162,2.81
			c0.754-0.043,1.195,0.772,0.877,1.41c-7.507,15.367-27.776,18.682-39.519,6.77c-0.068,3.899-0.864,8.875-3.977,9.007
			c2.332,37.012-2.484,75.116-13.024,110.987c18.065-33.728,43.813-63.489,75.059-85.569c0.028-0.018,0.049-0.037,0.077-0.055
			c-0.24-0.671-0.222-1.475,0.154-2.359c1.664-3.908,5.745-6.216,10.005-6.898c-10.302-1.545-19.917-5.687-28.233-12.213
			c-0.65-0.507-0.373-1.454,0.184-1.866c8.35-6.183,19.854-6.462,28.594-1.374c-3.441-7.032-4.13-15.176-1.756-22.826
			c0.153-0.482,0.557-0.898,1.1-0.901c9.775-0.148,18.256,6.741,21.191,15.595c0.253,0.755,0.469,1.525,0.635,2.308
			c1.007-3.867,2.485-7.639,3.03-11.678c0.485-3.503,0.514-6.959,0.449-10.428c-1.514-2.214-2.45-4.827-2.484-7.528
			c-0.018-1.865,0.262-4.801,2.578-5.158c2.492-0.382,3.501,2.644,3.919,4.562c0.536,2.455,0.428,5.139-0.715,7.405
			c0,0.033,0.001,0.065,0,0.105c-0.05,0.91-0.662,1.52-1.367,1.663c0.207,2.823,0.123,5.683-0.139,8.47
			c-0.364,3.887-0.965,8.649-2.509,12.633c8.755-8.888,23.898-8.641,35.658-5.025c0.521,0.162,0.792,0.524,0.865,1.043
			c1.374,9.826-3.302,18.257-10.482,22.853c-2.968,1.905-6.375,3.157-9.949,3.57c7.27,1.849,14.502,4.384,21.298,7.433
			c0.32-0.435,0.895-0.681,1.474-0.352c0.15,0.084,0.308,0.169,0.459,0.253c0.182-0.362,0.48-0.673,0.856-0.828
			c1.88-0.775,3.95-0.843,5.853-0.124c1.59,0.605,3.333,2.047,2.421,3.946c-0.829,1.716-3.134,1.712-4.727,1.503
			c-2.261-0.293-4.404-1.27-6.104-2.791c-7.353-2.604-14.669-4.812-22.181-6.701c6.643,5.545,11.318,13.285,12.87,22.068
			c0.175,1.02-0.855,1.758-1.705,1.067c-3.04-2.472-6.781-2.697-10.603-2.788c-4.066-0.083-8.227-0.001-11.724-2.248
			c-1.807-1.166-3.276-2.673-4.503-4.383c2.878,5.315,4.574,11.47,4.741,17.414c2.098,1.929,1.709,6.061-0.149,8.063
			c-0.684,0.747-1.826,0.545-2.372-0.237c-1.641-2.364-1.82-5.238-0.723-7.862c0.221-0.531,0.733-0.784,1.262-0.798
			c0.064-0.034,0.135-0.058,0.215-0.055c-0.925-5.992-2.694-11.347-5.512-16.64c-1.049,11.057-6.94,21.437-16.425,27.801
			c-0.758,0.511-1.929-0.264-1.651-1.178c1.664-5.331,0.94-10.346-1.7-14.982c-0.346-0.598-0.717-1.195-1.122-1.782
			c-2.404-3.497-4.752-6.787-4.619-11.205c0.058-2.017,0.551-3.925,1.38-5.64c-1.452,0.608-2.943,0.997-4.298,1.053
			c-1.257,0.047-2.33-0.382-2.971-1.138c-36.709,28.855-65.715,66.278-83.55,109.598c-0.164,0.391-0.408,0.641-0.683,0.779
			c-0.683,1.782-1.369,3.547-2.079,5.308c-2.625,6.539-5.45,12.999-8.5,19.35c-2.93,6.112-5.696,12.91-9.867,18.272
			c-0.833,1.076-2.899,0.012-2.415-1.299c1.981-5.306,5.194-10.236,7.72-15.31c2.807-5.655,5.47-11.385,7.971-17.185
			c4.955-11.465,9.31-23.206,13.023-35.139c7.407-23.82,12.36-48.463,14.303-73.347c0.961-12.38,1.14-24.804,0.95-37.209
			c-0.006-0.009-0.004-0.017-0.002-0.025c-0.251-0.034-0.521-0.089-0.8-0.179c-2.359-0.776-2.589-4.09-2.744-6.133
			c-0.014-0.254-0.02-0.506-0.031-0.768c-9.521,3.087-19.858,2.731-29.24-0.783c-4.702-1.76-9.115-4.277-12.943-7.532
			c-4.876-4.138-8.956-10.753-15.91-11.25c-1.202-0.086-1.941-1.666-0.738-2.388C213.607,89.047,223.991,83.16,234.915,84.017z"/>
		<path style="fill:#3E3E3D;" d="M140.314,102.786c0.206-0.812,1.226-0.747,1.527-0.057c3.343,7.649,2.241,17.45-3.747,23.491
			c3.118,4.772,6.067,9.653,8.868,14.594c0.423-4.297,1.42-8.678,2.711-12.951c-3.589-6.197-3.772-12.837-1.292-19.488
			c0.279-0.752,1.246-0.843,1.567-0.058c1.579,3.875,2.236,7.974,2.295,12.111c0.754-1.983,1.549-3.913,2.356-5.756
			c0.239-0.569,0.51-1.123,0.765-1.684c-0.138-0.097-0.254-0.251-0.316-0.453c-1.891-5.709-2.37-11.596-1.788-17.562
			c0.07-0.657,1.002-0.833,1.427-0.431c3.074,2.96,4.721,6.746,4.649,10.754c0.829-1.45,1.69-2.885,2.6-4.291
			c-0.277-0.037-0.551-0.192-0.672-0.464c-2.314-4.975-1.448-11.378,0.425-16.351c0.301-0.807,1.277-0.852,1.638-0.061
			c1.888,4.132,2.35,8.506,1.383,12.815c1.132-1.572,2.304-3.121,3.526-4.625c1.9-6.78,6.735-12.044,13.251-14.676
			c0.567-0.226,1.062,0.37,0.964,0.895c-0.676,3.644-2.364,7.034-4.782,9.843c-1.92,2.224-5.29,5.518-8.437,5.469
			c-0.237-0.007-0.372-0.246-0.285-0.447c-0.071-0.005-0.15-0.018-0.222-0.047c-0.9,1.248-1.759,2.517-2.602,3.802
			c4.138-1.518,8.469-1.876,12.987-1.2c0.618,0.095,0.799,0.932,0.405,1.357c-3.388,3.65-10.607,6.906-15.289,3.745
			c-0.21-0.142-0.259-0.408-0.164-0.601c-1.396,2.315-2.72,4.674-3.939,7.092c4.091-1.287,8.33-1.35,12.585-0.16
			c0.598,0.167,0.943,0.974,0.44,1.458c-3.868,3.691-10.103,5.2-14.737,2.258c-0.598,1.307-1.164,2.629-1.705,3.966
			c-0.947,2.322-1.781,4.686-2.544,7.08c4.188-2.513,9.436-4.261,13.87-2.912c0.271,0.084,0.595,0.293,0.645,0.599
			c0.029,0.149,0.042,0.29,0.048,0.432c0.107,2.866-3.793,4.848-6.039,5.94c-3.229,1.571-6.674,2.211-10.177,1.726
			c-0.226,0.915-0.468,1.823-0.671,2.745c-1.117,4.953-1.403,9.986-2.195,14.958c2.531,4.668,4.937,9.38,7.203,14.128
			c1.222,2.548,2.398,5.122,3.55,7.704c0.329-2.393,0.955-4.845,1.655-7.236c-0.227,0.048-0.482-0.03-0.68-0.274
			c-3.827-4.753-5.006-11.443-4.943-17.389c0.006-0.694,0.788-1.054,1.318-0.609c3.452,2.931,5.674,6.727,6.517,10.953
			c0.527-1.738,1.077-3.47,1.652-5.194c-3.668-4.074-5.719-8.775-6.167-14.253c-0.044-0.542,0.544-1.053,1.086-0.892
			c4.537,1.384,6.348,5.125,7.148,9.266c0.344-0.927,0.68-1.846,1.032-2.766c0.554-1.432,1.132-2.857,1.718-4.274
			c-0.272-0.1-0.493-0.313-0.537-0.666c-0.542-4.616-0.808-9.233-0.815-13.869c0.001-1.041,0.009-2.082,0.034-3.123
			c0.015-0.655,0.862-1.199,1.38-0.635c3.196,3.484,2.262,8.036,2.486,12.38c1.274-2.83,2.605-5.631,4.016-8.396
			c0.406-9.026,7.516-14.785,14.124-20.037c0.551-0.438,1.36,0.099,1.383,0.729c0.304,9.236-5.141,18.229-13.759,21.806
			c-0.582,0.242-1.069-0.339-1.065-0.867c-1.289,2.862-2.522,5.754-3.691,8.667c3.216-3.194,7.138-5.429,11.614-6.542
			c0.672-0.167,1.256,0.49,0.941,1.132c-2.257,4.601-7.718,8.912-13.124,8.332c-0.183,0.157-0.402,0.204-0.617,0.157
			c-0.755,1.96-1.486,3.942-2.168,5.938c-0.399,1.15-0.781,2.316-1.156,3.48c3.167-2.601,6.806-4.384,10.926-5.318
			c0.782-0.171,1.447,0.553,1.089,1.308c-2.532,5.282-7.69,9.037-13.544,8.907c-0.533,1.778-1.034,3.563-1.52,5.354
			c2.789-2.595,6.15-4.454,9.968-5.44c0.492-0.129,1.171,0.311,0.956,0.895c-1.807,5.042-6.766,10.761-12.526,11.282
			c-0.772,3.845-1.484,7.813-2.956,11.266c4.007,9.383,7.563,18.955,10.606,28.689c0.306-2.795,0.808-5.612,1.454-8.403
			c-0.032-0.022-0.064-0.037-0.09-0.076c-4.509-5.509-5.73-12.701-4.403-19.632c0.118-0.643,0.946-0.839,1.403-0.431
			c3.727,3.346,4.915,7.733,5.229,12.372c0.6-1.891,1.233-3.743,1.891-5.542c-0.143-0.026-0.279-0.092-0.402-0.221
			c-4.952-5.343-5.641-13.248-3.516-19.95c0.211-0.67,1.057-0.835,1.473-0.244c3.046,4.31,4.645,9.154,4.889,14.23
			c0.893-2.067,1.842-4.105,2.864-6.106c-0.224-0.079-0.419-0.253-0.525-0.548c-2.145-6.156-1.638-12.9,0.589-18.951
			c0.301-0.823,1.277-0.852,1.645-0.061c2.066,4.472,2.562,9.105,1.497,13.757c1.069-1.79,2.186-3.55,3.367-5.281
			c0.082-0.121,0.164-0.243,0.247-0.364c-0.116-0.138-0.178-0.332-0.1-0.579c1.904-6.244,8.254-11.052,14.125-13.218
			c0.661-0.245,1.206,0.412,1.11,1.031c-1.066,6.749-6.996,13.915-14.34,13.794c-0.031,0.001-0.056-0.014-0.088-0.021
			c-0.98,1.621-1.928,3.273-2.828,4.938c4.319-1.319,8.764-1.564,13.338-0.685c0.643,0.118,0.961,1.044,0.458,1.505
			c-4.383,4.034-10.502,5.72-16.155,3.793c-1.464,3.034-2.792,6.127-3.952,9.284c4.965-3.44,11.144-4.553,17.174-2.901
			c0.836,0.229,0.912,1.22,0.284,1.716c-4.954,3.945-12.467,7.125-18.971,5.648c-0.854,2.704-1.596,5.436-2.242,8.196
			c4.725-1.823,9.615-3.046,14.669-3.683c0.73-0.09,1.141,0.785,0.855,1.363c-2.767,5.527-10.504,9.693-16.655,7.746
			c-0.952,5.349-1.035,10.753-1.751,16.109c2.345,8.356,4.323,16.821,5.918,25.371c0.503,2.709,0.959,5.428,1.383,8.156
			c0.022-0.032,0.037-0.064,0.059-0.097c0.281-0.286,0.571-0.557,0.877-0.813c1.084-3.288,2.532-6.551,4.127-9.653
			c-2.318-5.535-3.051-12.508-0.996-18.103c0.28-0.752,1.209-0.991,1.708-0.285c2.329,3.272,3.54,7.003,3.587,10.825
			c1.063-1.719,2.192-3.392,3.385-5.022c-0.749-0.855-1.384-1.817-1.904-2.87c-0.997-1.997-5.224-14.982-0.456-15.017
			c2.136-0.016,3.531,3.574,4.016,5.164c0.972,3.236,0.764,6.783,0.187,10.132c0.069-0.042,0.139-0.076,0.217-0.103
			c0.475-0.593,0.949-1.186,1.432-1.764c-0.004-0.102,0-0.205,0.028-0.316c2.288-8.655,8.157-15.764,16.22-19.643
			c0.728-0.35,1.622,0.153,1.434,1.027c-1.732,8.327-7.213,16.138-15.201,19.494c-0.279,0.12-0.535,0.036-0.699-0.148
			c-0.407,0.512-0.797,1.039-1.188,1.558c2.227,0.327,4.447,0.655,6.675,0.982c1.554,0.226,3.642,0.204,4.913,1.308
			c1.353,1.187,1.135,2.749-0.41,3.594c-2.503,1.37-8.125,0.523-10.783-0.372c-1.166-0.391-2.196-0.975-3.106-1.706
			c-1.068,1.593-2.096,3.223-3.066,4.892c-0.718,1.249-1.388,2.519-2.05,3.797c4.611-0.873,9.217-1.036,13.92-0.501
			c0.657,0.078,0.93,1.061,0.457,1.489c-4.364,3.931-10.875,5.639-16.265,2.946c-0.524,1.162-1.025,2.324-1.486,3.5
			c-0.339,0.856-0.637,1.727-0.921,2.596c3.519-1.4,7.687-1.681,11.151-1.408c0.656,0.046,1.417,0.783,0.922,1.479
			c-3.235,4.59-8.663,7.472-14.183,6.992c-0.38,1.244-0.775,2.489-1.226,3.704c-0.043,0.12-0.117,0.233-0.193,0.331
			c0.233,1.813,0.458,3.625,0.66,5.447c0.836,7.435,1.841,15.163,1.307,22.649c-0.129,1.826-2.578,1.925-2.834,0.105
			c-0.915-6.384-0.991-12.885-1.632-19.302c-0.649-6.425-1.501-12.826-2.574-19.188c-0.668-3.972-1.422-7.933-2.255-11.876
			c-0.341-0.066-0.663-0.244-0.928-0.573c-2.583-3.325-5.295-6.489-8.103-9.514c-0.099,0.106-0.221,0.205-0.393,0.243
			c-5.977,1.46-12.244,1.259-18.254,0.119c-0.675-0.125-0.876-0.858-0.644-1.411c0.906-2.131,2.796-2.84,4.991-3.173
			c3.08-0.485,6.26-0.627,9.415-0.807c-2.405-2.355-4.879-4.628-7.427-6.811c-0.083,0.105-0.198,0.196-0.353,0.257
			c-5.792,2.202-12.363,2.525-18.477,1.972c-0.767-0.074-1.295-0.914-0.712-1.558c3.437-3.841,8.074-5.913,12.999-5.978
			c-1.874-1.436-3.779-2.84-5.714-4.195c-0.053,0.049-0.106,0.107-0.176,0.141c-6.246,2.913-13.053,3.663-19.832,2.653
			c-0.793-0.113-0.848-1.19-0.272-1.59c4.297-2.975,9.047-4.759,14.12-5.302c-2.342-1.498-4.729-2.939-7.154-4.331
			c-0.039,0.017-0.069,0.042-0.109,0.051c-10.047,2.47-20.835-3.349-25.403-12.348c-0.255-0.495-0.142-1.28,0.515-1.423
			c9.543-2.034,19.901,1.98,24.716,10.615c2.706,1.311,5.353,2.75,7.963,4.261c-2.85-5.405-4.597-11.253-5.228-17.426
			c-0.084-0.777,0.853-1.017,1.372-0.634c6.553,4.912,11.386,13.633,10.216,22.01c2.457,1.627,4.863,3.351,7.215,5.14
			c-1.611-6.428-2.154-12.983-1.535-19.66c0.072-0.807,1.079-1.286,1.59-0.501c4.564,6.997,6.352,15.421,4.21,23.542
			c2.66,2.203,5.236,4.496,7.722,6.88c-1.887-4.731-2.696-9.763-2.402-14.992c0.042-0.79,0.914-1.272,1.55-0.712
			c5.786,5.059,6.92,13.524,6.045,20.943c2.511,2.666,4.908,5.415,7.189,8.24c-1.568-6.761-3.362-13.475-5.383-20.108
			c-2.982-9.799-6.462-19.438-10.4-28.886c-2.355-1.205-4.355-3.275-6.426-4.901c-2.599-2.056-5.236-4.071-7.903-6.045
			c-0.048-0.03-0.097-0.067-0.145-0.097c-4.171,2.528-9.111,3.894-13.909,4.404c-0.447,0.048-0.929-0.391-0.915-0.849
			c0.205-5.518,5.021-6.596,9.623-7.295c-1.87-1.302-3.754-2.58-5.653-3.834c-3.579,2.545-8.125,4.126-12.33,5.086
			c-1.587,0.366-5.125,1.696-5.871-0.586c-0.8-2.43,4.163-5.074,5.693-5.911c2.125-1.167,4.367-1.928,6.685-2.33
			c-2.389-1.504-4.81-2.999-7.276-4.444c-6.29,3.86-13.355,6.59-20.405,8.642c-0.725,0.216-1.624-0.633-1.13-1.353
			c3.784-5.525,9.268-9.222,15.612-10.561c-2.178-1.125-4.386-2.186-6.644-3.127c-0.069,0.058-0.154,0.108-0.247,0.151
			c-7.744,3.331-17.083,1.518-23.566-3.634c-0.471-0.377-0.36-1.201,0.141-1.495c7.622-4.501,18.78-6.13,24.03,2.536
			c1.143,0.415,2.271,0.877,3.393,1.356c-3.51-5.136-5.176-12.619-6.287-17.473c-0.17-0.758,0.553-1.455,1.301-1.073
			c8.134,4.191,14.758,13.579,13.927,23.031c2.698,1.516,5.343,3.113,7.924,4.696c0.742,0.453,1.485,0.93,2.228,1.392
			c-3.643-5.73-6.122-11.984-7.42-18.708c-0.118-0.634,0.508-1.399,1.178-0.974c6.878,4.341,11.343,12.886,9.194,21.039
			c0.017,0.023,0.033,0.046,0.05,0.069c0.117,0.169,0.148,0.365,0.115,0.555c2.851,1.834,5.658,3.74,8.441,5.67
			c-2.922-4.598-4.927-9.53-6.042-14.928c-0.116-0.571,0.465-1.279,1.079-0.892c6.017,3.876,9.849,10.884,8.541,18.099
			c0.396,0.048,0.692,0.368,0.737,0.745c2.292,1.641,4.554,3.323,6.787,5.054c0.966,0.745,2.018,1.486,3.048,2.252
			c-2.927-6.64-6.088-13.184-9.48-19.609c-0.385-0.191-0.683-0.558-0.702-1.077c-0.003-0.079-0.006-0.165-0.009-0.244
			c-2.745-5.141-5.638-10.213-8.677-15.185c-0.613-0.994-1.232-1.98-1.853-2.967c-5.149-0.234-21.704-2.331-19.479-7.168
			c1.006-2.205,6.304-1.78,8.02-1.646c2.427,0.186,4.721,0.81,6.87,1.779c-1.169-1.746-2.353-3.492-3.56-5.221
			c-4.671,0.552-9.379,0.285-13.909-1.099c-1.531-0.471-6.49-1.525-5.515-4.147c0.86-2.318,6.562-2.475,8.478-2.467
			c2.153,0.007,4.24,0.378,6.22,1.054c-1.271-1.75-2.543-3.501-3.829-5.242c-6.053,3.016-14.617,0.196-19.551-3.586
			c-0.528-0.406-0.262-1.307,0.332-1.471c5.696-1.607,11.798-1.18,16.838,1.85c-1.302-1.733-2.605-3.474-3.915-5.207
			c-0.181,0.007-0.366-0.089-0.446-0.33c-0.09-0.304-0.196-0.607-0.302-0.911c-0.032,0.001-0.071,0.01-0.102,0.004
			c-3.204-0.52-6.398-3.302-8.687-5.488c-2.713-2.587-4.838-5.662-6.43-9.048c-0.377-0.798,0.16-1.622,1.064-1.49
			c7.657,1.095,15.522,8.245,15.415,16.401c0.066,0.068,0.131,0.137,0.189,0.206c1.182,1.249,2.356,2.53,3.508,3.812
			c-0.078-5.295,0.103-10.584,0.561-15.875c0.066-0.759,0.967-1.132,1.449-0.456c4.118,5.807,5.604,13.951,2.171,20.457
			c-0.081,0.161-0.228,0.237-0.377,0.258c2.053,2.431,4.053,4.911,6,7.44c-0.27-6.423,0.315-12.736,1.753-19.026
			c0.163-0.7,1.173-0.903,1.551-0.263c4.2,7.168,4.381,16.267-0.418,23.115c1.602,2.172,3.159,4.384,4.684,6.614
			C134.6,114.911,138.725,109.034,140.314,102.786z"/>
		<path style="fill:#3E3E3D;" d="M68.017,280.499c0.417-7.484,2.694-15.268,9.454-19.097c4.562-2.584,9.982-3.104,14.52-5.719
			c5.696-3.285,8.643-9.415,10.967-15.292c0.315-0.804,1.576-0.756,1.583,0.213c0.055,9.958-4.27,19.649-11.975,26.03
			c-4.168,3.451-9.273,5.137-13.732,8.083c-5.326,3.53-7.571,9.036-8.729,14.961c3.766,14.772,9.32,29.063,15.836,42.898
			c-1.371-20.145,5.657-40.227,19.294-55.109c0.457-0.615,0.993-1.19,1.623-1.718c0.922-0.764,2.19,0.441,1.332,1.332
			c-0.489,0.496-0.961,1.009-1.434,1.521c-3.104,4.199-2.214,10.809-2.592,15.741c-0.41,5.31-1.15,10.612-2.419,15.788
			c-2.301,9.359-6.539,19.727-13.968,26.266c0.914,1.899,1.851,3.79,2.805,5.665c3.214,6.334,6.665,12.542,10.124,18.743
			c0.079-1.056,0.189-2.04,0.213-2.805c0.118-4.246,0.662-8.469,2.237-12.448c3.112-7.839,9.485-13.945,11.266-22.367
			c0.15-0.701,1.229-0.678,1.395,0c3.656,14.622-0.055,33.231-11.833,43.512c2.529,4.577,5.026,9.178,7.382,13.85
			c0.622,1.221-1.079,2.222-1.836,1.072c-2.324-3.506-4.593-7.083-6.823-10.699c-0.095,0.039-0.197,0.079-0.323,0.079
			c-10.502,0.465-21.768,0.693-30.883-5.365c-4.625-3.073-8.453-7.224-12.401-11.093l-14.575-14.292
			c-0.819-0.811,0.221-1.962,1.174-1.52c6.043,2.805,12.605,2.616,19.097,3.167c3.798,0.323,7.461,1.04,10.998,2.285
			c-1.851-1.607-3.474-3.435-4.987-5.57c-3.325-4.711-6.657-9.084-10.975-12.944c-4.617-4.12-9.714-7.642-14.795-11.148
			c-0.827-0.575-0.568-1.946,0.528-1.962c12.188-0.103,24.651,4.806,33.554,13.244c-2.056-4.774-3.994-9.572-5.775-14.402
			c-1.198-3.254-2.301-6.531-3.317-9.832c-9.029,1.82-16.6-4.396-21.531-11.715c-6.334-9.391-9.383-20.681-9.273-31.955
			c0.008-1.032,1.568-1.284,1.828-0.244c2.159,8.745,4.632,16.891,11.266,23.328c5.578,5.42,11.172,10.738,16.474,16.411
			c-3.931-13.921-6.2-28.189-6.642-42.614c-8.264,4.79-17.041-8.635-19.893-14.788c-4.758-10.242-5.381-21.965-1.623-32.616
			c0.339-0.945,1.97-0.882,1.875,0.26c-0.812,9.714,2.269,19.389,8.903,26.605c3.388,3.687,8.343,6.799,10.722,11.117
			c0.102-3.876,0.315-7.752,0.693-11.644c0.339-3.537,0.788-7.051,1.339-10.549c-20.208-6.633-24.486-29.441-26.708-47.877
			c-0.134-1.245,1.788-1.221,1.93,0c0.354,3.356,5.255,5.964,7.681,7.997c2.001,1.67,3.923,3.435,5.736,5.302
			c3.656,3.766,6.894,8.028,9.273,12.716c0.701,1.387,1.331,2.844,1.883,4.333c0.646-6.988,2.615-14.126,4.727-20.035
			c3.766-10.565,9.698-20.184,17.403-28.331c0.591-0.622,1.788,0.016,1.481,0.859c-3.908,10.841-1.591,22.461-3.923,33.57
			c-2.009,9.572-8.469,17.403-15.993,23.375c-1.844,10.344-2.828,20.791-2.884,31.293c2.112-6.074,4.42-11.495,9.816-15.733
			c3.593-2.82,7.358-5.255,9.754-9.273c2.655-4.443,3.585-9.667,3.994-14.756c0.063-0.78,1.198-1.024,1.426-0.189
			c4.9,18.246-5.349,41.109-24.943,45.348c0.134,5.42,0.52,10.856,1.182,16.292C66.504,272.242,67.19,276.387,68.017,280.499z"/>
		<path style="fill:#3E3E3D;" d="M382.293,260.9c-6.098-11.195-10.801-23.044-11.18-36.036c-0.031-1.119,1.253-1.788,2.19-1.253
			c9.564,5.412,16.3,13.574,21.429,22.863c-3.143-8.966-5.79-18.128-7.831-27.346c-0.158,0.032-0.307,0.071-0.465,0.079
			c-3.703,0.244-5.877-4.885-2.49-6.933c1.379-0.835,3.238-0.835,4.506,0.213c0.378,0.315,0.646,0.693,0.843,1.103
			c0.079,0.087,0.165,0.158,0.244,0.252c1.103,1.379,1.323,4.301-0.843,4.829c-0.189,0.047-0.386,0.047-0.583,0.016
			c4.302,13.756,8.887,27.314,14.008,40.77c-0.591-5.948-1.095-11.904-1.402-17.86c-0.504-9.698,0.181-19.672,5.696-27.976
			c0.583-0.89,1.773-0.874,2.363,0c5.357,7.902,8.13,16.647,9.336,25.731c1.489-8.721,4.231-17.317,7.689-25.392
			c0.228-0.536,0.465-1.071,0.701-1.607c-2.836-1.749-1.505-6.547,1.607-7.13c1.938-0.362,3.947,0.843,4.601,2.694
			c0.607,1.741-0.299,3.593-1.938,4.357c-0.543,0.252-1.142,0.362-1.725,0.339c-0.551,0.173-1.126,0.221-1.678,0.095
			c-0.205,0.536-0.402,1.072-0.591,1.607c-4.262,11.723-6.476,23.603-7.926,36.051c0.008,0.567,0.016,1.143,0.016,1.71
			c4.317-14.118,13.504-36.658,23.359-26.818c5.499,5.491,1.852,16.876,0.236,23.328c-1.04,4.16-2.387,8.43-4.27,12.408
			c5.365-8.083,11.242-15.891,17.75-23.036c-0.268-0.26-0.496-0.559-0.662-0.906c-1.19-2.411,1.079-5.129,3.648-4.727
			c2.403,0.378,3.498,3.49,2.009,5.341c-0.016,0.024-0.024,0.047-0.032,0.071c-1.008,1.395-2.86,1.528-4.238,0.764
			c-6.555,8.682-12.897,17.435-18.75,26.589c2.222-2.143,4.538-4.199,6.933-6.161c3.647-2.978,14.677-12.054,17.246-3.002
			c2.537,8.934-6.232,18.01-12.109,23.344c-7.579,6.886-16.277,12.385-25.833,16.072c-0.126,0.047-0.252,0.055-0.362,0.04
			c-2.734,6.121-6.279,11.951-10.927,16.671c-0.347,0.354-0.835,0.323-1.19,0.087c0.788,5.16-3.009,10.848-5.192,15.245
			c-1.119,2.253-2.316,4.514-3.601,6.76c2.805-2.576,5.909-4.861,8.816-7.004c2.119-1.552,4.27-3.057,6.46-4.506
			c6.145-4.089,12.55-7.752,19.168-11.014c1.032-0.512,2.025,0.504,1.528,1.528c-7.752,16.04-22.753,33.152-41.826,33.743
			c-0.946,0.039-1.899,0.031-2.86-0.024c-4.38,5.239-9.493,9.785-15.56,12.881c-0.851,0.441-1.536-0.741-0.748-1.276
			c12.558-8.548,21.082-20.255,27.314-34.003c1.639-3.608,4.695-8.942,2.805-12.865c-1.686-3.522-4.806-6.697-7.13-9.785
			c-0.512-0.677-1.103-1.387-1.725-2.127c-0.347,0.465-0.922,0.749-1.647,0.567c-20.885-5.192-37.525-22.587-41.889-43.654
			c-0.189-0.914,0.441-2.151,1.552-2.033c8.328,0.882,16.245,3.601,23.21,7.918c-6.153-6.618-12.794-12.653-19.436-18.798
			c-0.165,0.213-0.347,0.41-0.567,0.591c-1.694,1.442-4.105,1.158-5.625-0.41c-1.497-1.552-1.662-4.002-0.244-5.649
			c1.276-1.473,3.49-2.048,5.278-1.19c1.347,0.646,2.174,2.048,2.277,3.514c0.126,0.733,0.039,1.489-0.291,2.143
			C369.38,247.704,376.163,254.101,382.293,260.9z"/>
		<path style="fill:#3E3E3D;" d="M130.352,354.458c-0.047-0.93,1.04-1.434,1.788-1.024c4.79,2.616,7.681,7.871,10.352,12.432
			c2.994,5.105,5.555,10.47,7.674,16.001c3.734,9.73,6.657,20.759,6.933,31.442c0.039,0.039,0.087,0.079,0.126,0.118
			c3.348-9.73,6.153-19.538,8.257-29.528c-0.063-0.205-0.126-0.402-0.189-0.607c-0.063-0.039-0.126-0.087-0.189-0.142
			c-5.61-4.987-10.762-10.415-15.363-16.355c-3.49-4.514-8.115-9.596-7.146-15.678c0.103-0.646,0.977-0.93,1.489-0.607
			c10.557,6.602,19.633,17.781,22.028,30.292c1.379-7.059,2.403-14.205,3.025-21.476c-0.008,0-0.008,0-0.008,0
			c-18.294-12.668-24.486-37.533-22.863-58.552c0.055-0.772,1.127-1.473,1.726-0.717c10.226,12.865,18.821,29.15,21.831,45.828
			c0.197-10.651-0.386-21.335-1.781-31.9c-0.158-0.063-0.299-0.173-0.418-0.339c-10.817-15.221-14.52-34.862-10.478-53.029
			c0.173-0.772,1.19-0.78,1.576-0.205c10.486,15.512,20.058,33.05,11.597,51.627c0.047,0.315,0.102,0.638,0.15,0.961
			c0.859,5.609,1.473,11.25,1.875,16.899c2.222-8.123,6.295-15.3,12.755-20.767c7.453-6.311,15.662-11.833,23.501-17.647
			c0.835-0.622,1.733,0.551,1.324,1.331c-8.146,15.717-18.609,35.736-37.367,40.424c0.347,6.366,0.41,12.739,0.166,19.113
			c-0.339,9.06-1.245,18.262-2.742,27.393c2.261-5.381,4.94-10.573,8.028-15.528c1.852-2.978,3.853-5.862,5.996-8.65
			c4.483-5.846,9.548-11.187,15.111-16.017c6.484-5.625,13.314-10.817,18.727-17.545c0.583-0.725,2.041-0.15,1.922,0.796
			c-2.214,17.12-10.959,33.774-20.641,47.869c-7.697,11.203-18.018,22.524-30.852,27.952c-0.851,0.362-1.718,0.701-2.6,1.008
			c-2.821,10.336-6.508,20.389-11.187,29.835c-0.764,1.529-3.451,0.441-2.797-1.182c1.418-3.545,2.773-7.098,4.065-10.652
			c-0.094-0.772-0.181-1.544-0.276-2.308C137.876,400.649,131.526,376.462,130.352,354.458z"/>
		<path style="fill:#3E3E3D;" d="M379.036,321.952c-5.41,6.255-7.152,14.246-9.315,22.003c-2.122,7.624-5.205,14.77-9.926,21.161
			c-4.592,6.224-10.352,11.563-16.916,15.646c-7.965,4.949-17.632,6.819-24.675,13.247c-0.267,0.244-0.553,0.34-0.821,0.347
			c-2.564,7.401-5.648,14.635-9.075,21.667c2.534-2.821,5.222-5.506,8.213-7.84c3.424-2.667,7.213-4.837,11.367-6.133
			c5.479-1.705,11.703-1.197,16.452-4.816c0.934-0.709,2.417,0.374,1.631,1.423c-6.157,8.301-11.883,18.224-20.496,24.216
			c-6.946,4.829-15.607,7.305-24.056,6.53c-4.393,8.126-9.358,16.266-15.419,22.803c-1.243,1.333-3.105-0.582-2.287-1.997
			c2.931-5.065,6.65-9.698,9.767-14.652c3.127-4.967,6.052-10.064,8.78-15.257c4.5-8.59,8.528-17.483,11.825-26.618
			c-8.803-1.969-16.759-10.441-21.13-17.706c-2.671-4.439-4.547-9.388-5.407-14.499c-1.076-6.346,0.019-13.04-3.035-18.949
			c-0.477-0.925,0.476-1.721,1.351-1.526c21.179,4.817,30.808,26.417,30.325,46.51c6.41-20.194,8.167-42.476-0.422-62.05
			c-0.106,0.052-0.199,0.114-0.305,0.166c-3.685,1.646-7.549-1.519-8.593-5.156c-2.663,3.33-6.07,6.068-9.594,8.442
			c-3.406,2.29-7.343,4.751-11.637,4.302c-5.262-0.565-8.727-6.493-5.384-10.242c-1.882-0.985-4.054-2.223-4.033-4.231
			c0.029-2.424,2.49-3.001,4.459-2.917c4.938,0.206,9.502,0.814,14.47,0.111c0.564-0.082,1.115-0.175,1.666-0.286
			c-11.317-0.385-22.492-5.659-30.272-13.84c-0.464-0.484-0.428-1.202-0.123-1.745c0.94-1.65,2.262-2.39,4.122-2.656
			c1.736-0.25,9.827,2.004,8.577-2.417c-0.255-0.901-0.73-1.66-1.251-2.37c-1.439-1.928-3.269-3.473-2.153-6.418
			c0.286-0.762,1.065-1.123,1.834-0.894c9.06,2.641,16.543,8.127,23.381,14.392c-4.746-8.537-8.259-17.692-7.324-27.7
			c0.108-1.218,1.91-2.07,2.719-0.913c2.348,3.326,4.691,6.662,7.039,9.988c0.67-4.454,2.306-9.01,5.26-12.228
			c3.236-3.522,7.027-1.495,8.64,2.355c3.005,7.177,3.389,15.753,2.212,23.898c3.186-4.865,6.908-9.368,11.174-13.436
			c1.121-1.063,2.702,0.024,2.72,1.357l0.104,7.95c3.514-1.493,6.608-5.559,10.776-3.532c3.594,1.746,2.774,6.072,1.296,8.974
			c-5.298,10.442-17.289,15.635-27.53,19.887c0.547,1.232,0.893,2.536,0.823,3.92c-0.099,1.74-0.847,3.497-2.173,4.625
			c0.021,0.043,0.041,0.085,0.062,0.128c6.822,13.195,8.486,28.107,6.886,42.794c2.285-8.352,7.104-16.124,12.783-22.439
			c10.957-12.191,26.079-19.592,41.345-24.864C378.554,320.189,379.781,321.089,379.036,321.952z"/>
		<path style="fill:#3E3E3D;" d="M225.296,436.231c-1.316-3.167-2.592-6.358-3.679-9.612c-2.206-6.594-3.608-13.283-3.136-20.255
			c0.047-0.63,0.867-1.119,1.347-0.559c7.319,8.509,11.392,18.617,11.51,29.701c2.308-5.657,4.286-11.447,5.861-17.356
			c0.465-1.757,0.89-3.53,1.292-5.302c-0.228-0.221-0.268-0.63,0.087-0.874c0.039-0.031,0.079-0.063,0.126-0.095
			c0.032-0.165,0.071-0.339,0.11-0.512c-0.008-0.008-0.016-0.008-0.024-0.016c-0.165,0.772-1.142,1.355-1.804,0.599
			c-10.856-12.408-12.479-29.323-13.574-45.095c-0.047-0.622,0.882-1.04,1.284-0.536c9.328,11.487,14.528,25.479,15.087,40.14
			c1.261-6.988,2.025-14.071,2.308-21.169c0.024-0.465,0.039-0.937,0.055-1.402c-6.436-12.219-2.97-26.337,0.449-38.982
			c0.236-0.875,1.355-0.748,1.639,0c3.986,10.313,4.798,21.957,1.741,32.601c3.167-4.633,7.24-8.588,11.928-11.747
			c0.678-0.457,1.442,0.299,1.292,0.993c-1.655,7.666-7.516,16.166-15.402,18.459c-0.071,0.031-0.142,0.055-0.213,0.071
			c-0.063,0.016-0.126,0.039-0.181,0.055c0.079,5.452-0.173,10.888-0.748,16.3c4.38-7.571,10.62-13.866,18.396-18.333
			c0.685-0.386,1.607,0.26,1.363,1.048c-3.474,11.203-10.88,21.791-21.271,27.558c-0.426,2.308-0.906,4.624-1.457,6.925
			c-0.804,3.356-1.726,6.689-2.766,9.99c7.524-8.044,16.899-14.284,26.148-20.302c0.725-0.473,1.678,0.307,1.442,1.111
			c-4.262,14.654-16.828,27.803-32.018,31.112c-1.15,2.694-2.363,5.373-3.679,7.996c-1.513,3.025-2.947,6.767-5.491,9.052
			c-0.93,0.843-2.419,0.031-2.112-1.237c0.764-3.143,2.994-5.972,4.491-8.847c1.024-1.946,1.977-3.931,2.899-5.924
			c-0.126-0.031-0.244-0.071-0.347-0.126C226.486,440.753,226.013,437.956,225.296,436.231z"/>
		<path style="fill:#3E3E3D;" d="M301.821,249.372c0.176-6.539,1.183-14.31,5.696-19.036c-8.76,0.17-16.294-7.661-19.303-16.075
			c-0.267-0.746,0.528-1.292,1.177-1.177c2.457,0.449,4.871,0.109,7.273-0.194c2.845-0.37,5.678-0.692,8.571,0.37
			c3.13,1.153,5.769,3.252,8.183,5.55c-1.244-6.163,0.322-12.563,4.331-17.592c0.528-0.655,1.68-0.109,1.644,0.679
			c-0.152,3.47,4.629,5.49,5.229,9.051c0.206,1.256,0.085,2.499-0.194,3.737c0.182-0.127,0.37-0.255,0.558-0.376
			c0.57-0.37,1.165-0.698,1.783-0.977c5.878-2.693,12.739-0.977,18.684,0.588c0.825,0.218,0.861,1.51,0,1.711
			c-2.614,0.607-3.682,3.931-5.326,5.829c-1.523,1.759-3.409,3.239-5.46,4.337c-1.966,1.056-4.052,1.747-6.194,2.093
			c7.989,3.203,14.152,10.331,15.814,19.017c0.139,0.71-0.673,1.632-1.395,1.074c-2.9-2.226-6.479-1.783-9.912-2.178
			c-2.53-0.291-4.932-1.104-7.103-2.445c-2.554-1.583-4.653-3.773-6.127-6.327c-1.28,7.819-8.268,13.928-16.967,13.309
			C302.276,250.306,301.802,249.93,301.821,249.372z"/>
		<path style="fill:#3E3E3D;" d="M146.428,265.021c0.477-5.039,0.431-11.102-2.594-15.154c6.712,0.951,13.232-4.36,16.331-10.541
			c0.275-0.548-0.285-1.042-0.794-1.014c-1.929,0.115-3.752-0.372-5.568-0.83c-2.151-0.551-4.296-1.063-6.618-0.518
			c-2.512,0.592-4.735,1.958-6.805,3.497c1.532-4.617,0.929-9.68-1.68-13.917c-0.344-0.553-1.28-0.241-1.326,0.368
			c-0.208,2.679-4.069,3.784-4.864,6.462c-0.276,0.945-0.299,1.912-0.201,2.888c-0.128-0.115-0.26-0.23-0.393-0.341
			c-0.403-0.337-0.829-0.645-1.278-0.917c-4.263-2.619-9.693-1.943-14.406-1.297c-0.654,0.091-0.803,1.08-0.16,1.314
			c1.951,0.711,2.46,3.364,3.545,4.976c1.005,1.494,2.315,2.807,3.787,3.842c1.411,0.995,2.949,1.721,4.561,2.187
			c-6.436,1.712-11.837,6.61-13.927,13.127c-0.174,0.532,0.364,1.316,0.971,0.955c2.436-1.438,5.143-0.763,7.817-0.745
			c1.97,0.013,3.891-0.386,5.685-1.213c2.11-0.977,3.927-2.463,5.298-4.286c0.251,6.126,5.047,11.472,11.787,11.811
			C145.991,265.696,146.39,265.451,146.428,265.021z"/>
		<path style="fill:#3E3E3D;" d="M205.213,412c-2.012-1.524-3.945-1.211-6.249-0.55c-1.896,0.544-3.772,1.221-5.638,1.934
			c0.458-0.81,0.894-1.635,1.294-2.483c1.153-2.445,2.673-5.657,0.568-8.029c-3.005-3.387-5.657-0.38-7.26,3.09
			c-0.88-1.33-1.994-2.507-3.402-3.561c-1.057-0.791-2.519,0.288-2.525,1.449c-0.019,4.243,0.881,8.972,3.568,12.388
			c-3.069-2.558-6.707-4.249-10.533-5.58c-1.84-0.64-2.986,1.525-2.303,2.996c0.252,0.544,0.536,1.047,0.836,1.53
			c-1.501,0.045-3.014,0.239-4.578,0.593c-1.474,0.333-2.114,2.493-0.926,3.508c2.732,2.335,5.704,3.125,8.794,3.094
			c-2.314,2.557-4.163,5.512-5.574,8.879c-0.823,1.966,1.738,3.261,3.266,2.511c0.572-0.281,1.12-0.578,1.657-0.884
			c-0.304,2.257,0.366,4.073,3.416,4.033c2.771-0.036,3.845-2.599,4.816-4.813c0.614-1.401,1.167-2.829,1.697-4.266
			c0.252,0.107,0.509,0.201,0.768,0.29c1.075,2.843,2.455,5.547,4.413,8.073c1.227,1.582,3.851,0.209,3.821-1.583
			c-0.011-0.662-0.044-1.302-0.095-1.933c2.927,1.803,6.093,2.713,6.727-1.416c0.454-2.961-1.869-5.868-4.739-8.333
			c2.062,0.092,4.136,0.06,6.241-0.111c1.716-0.14,3.213-2.472,1.579-3.811c-0.711-0.583-1.427-1.088-2.154-1.562
			c0.851-0.489,1.69-1.008,2.514-1.599C206.668,414.81,206.603,413.053,205.213,412z"/>
		<path style="fill:#3E3E3D;" d="M233.816,188.514c-0.257-0.124-0.513-0.251-0.77-0.377c0.24-0.179,0.399-0.457,0.378-0.808
			c-0.353-5.819-0.844-11.946-4.473-16.767c-3.485-4.629-9.315-7.293-11.01-13.167c-0.287-0.994-2.011-0.854-1.882,0.255
			c0.875,7.477-2.095,14.04,2.21,20.922c3.457,5.526,9.139,8.87,15.358,10.393C233.886,189.027,234.076,188.64,233.816,188.514z"/>
		<path style="fill:#3E3E3D;" d="M233.478,138.245c-3.251-8.179-12.032-14.754-17.997-20.943c-1.1-1.141-2.777,0.304-2.113,1.63
			c4.329,8.643,0.582,18.595,3.099,27.683c1.888,6.818,6.169,11.885,12.131,15.485c0.289,0.175,0.547,0.047,0.668-0.172
			c0.449-0.004,0.892-0.202,1.148-0.659C234.281,154.363,236.519,145.898,233.478,138.245z"/>
		<path style="fill:#3E3E3D;" d="M241.966,240.852c-3.173-3.056-6.939-4.586-11.077-4.638c2.945-3.322,4.104-7.579,3.267-12.264
			c-0.237-1.329-2.258-0.96-2.287,0.31c-0.082,3.528-5.892,4.309-7.631,7.042c-0.258,0.406-0.464,0.833-0.647,1.268
			c-0.661-3.696-3.158-6.939-6.573-8.8c-1.243-0.677-2.398,0.21-2.566,1.472c-0.56,4.218-0.321,9.544,2.406,12.661
			c-3.908,1.284-6.764,7.956-11.123,8.024c-1.216,0.019-1.434,1.474-0.575,2.122c3.896,2.937,8.986,2.882,12.823,0.485
			c-0.241,1.147-0.322,2.315-0.11,3.498c0.539,2.999,4.558,5.611,3.787,8.715c-0.312,1.259,1.465,2.074,2.129,0.898
			c2.673-4.731,5.046-9.708,4.225-14.835c4.456,1.973,10.035-1.242,13.95-4.345C242.443,242.086,242.37,241.241,241.966,240.852z"/>
		<path style="fill:#3E3E3D;" d="M207.249,74.783c-1.577-0.647-3.073-1.347-4.49-2.119c-0.641-10.089-11.139-18.772-20.585-20.14
			c-1.008-0.146-1.67,0.532-1.533,1.533c1.33,9.728,9.396,18.916,19.475,19.509c2.023,1.403,4.252,2.471,6.629,3.047
			C207.964,76.909,208.353,75.235,207.249,74.783z"/>
		<path style="fill:#3E3E3D;" d="M128.533,278.043c-0.01-0.001-0.017,0.002-0.027,0c0.413-2.482,0.919-4.971,1.542-7.471
			c0.375-1.503-1.932-2.143-2.322-0.64c-0.693,2.672-1.249,5.389-1.678,8.129c-5.865,2.922-10.753,8.659-10.485,15.536
			c0.075,1.919,0.649,3.687,1.429,5.382c0.219,0.608,0.481,1.157,0.791,1.619c0.014,0.021,0.032,0.038,0.047,0.059
			c0.452,0.839,0.931,1.666,1.408,2.487c3.164,5.451,6.348,10.891,9.522,16.336c0.454,0.779,1.869,0.71,2.048-0.268
			c0.931-5.063,2.271-9.987,4.013-14.83c1.56-4.339,3.365-8.752,3.382-13.437C138.224,285.002,134.76,278.957,128.533,278.043z"/>
		<path style="fill:#3E3E3D;" d="M434.763,175.988c-1.403-0.735-2.965-1.241-4.617-1.582c-4.163-5.207-10.493-8.311-16.849-9.937
			c-0.682-0.175-1.29,0.576-0.922,1.199c0.339,0.574,0.68,1.068,1.048,1.535c-1.77-0.158-3.531-0.242-5.298-0.262
			c-0.145-0.011-0.286-0.032-0.432-0.041c-0.213-0.014-0.403,0.007-0.584,0.043c-1.224,0.004-2.452,0.029-3.693,0.098
			c-1.081,0.06-1.368,1.324-0.648,1.91c-2.591,0.484-5.471,1.249-6.127,2.665c-0.392,0.846-0.265,1.514,0.123,2.048
			c-2.201,0.579-4.36,1.258-6.512,2.061c-1.019,0.38-1.227,1.993,0,2.283c0.172,0.041,0.343,0.082,0.515,0.122
			c-5.691,3.283-9.551,8.688-13.202,14.228c-0.495,0.751,0.152,1.841,1.036,1.806c5.937-0.234,11.575-1.408,17.043-3.502
			c-0.315,0.663-0.609,1.339-0.872,2.052c-0.3,0.813,0.646,1.794,1.471,1.471c3.82-1.499,7.129-3.533,10.079-6.234
			c0.004,0.388,0.008,0.777,0.012,1.165c-0.382,0.848,0.07,1.748,1.038,1.809c3.869,0.243,6.742-1.368,9.926-3.421
			c4.322-2.787,8.603-5.695,12.811-8.65c0.073-0.051,0.134-0.108,0.193-0.165c1.237,0.127,2.471,0.196,3.698,0.116
			C435.4,178.713,436.179,176.729,434.763,175.988z"/>
	</g>
</g>
</svg>
